# This file uses centimeters as units for non-parametric coordinates.

mtllib Saturn.mtl
v 9.929329 -3.764374 0.897903
v 9.929329 3.764374 0.897903
v 3.838448 0.000000 -8.957352
v 6.164955 6.090881 -5.192978
v 6.164955 -6.090881 -5.192978
v 3.838448 0.000000 10.753159
v 6.164955 -6.090881 6.988785
v 6.164955 6.090881 6.988785
v -9.781174 -3.764374 0.897903
v -9.781174 3.764374 0.897903
v -3.690292 0.000000 10.753159
v -6.016804 -6.090881 6.988785
v -6.016804 6.090881 6.988785
v -3.690292 0.000000 -8.957352
v -6.016804 6.090881 -5.192978
v -6.016804 -6.090881 -5.192978
v 0.074078 -9.855255 4.662277
v 0.074078 9.855255 4.662277
v 0.074078 9.855255 -2.866470
v 0.074078 -9.855255 -2.866470
v 8.746819 -5.360046 4.210594
v 3.386772 -8.672745 6.257950
v 0.074078 -10.720100 0.897903
v 3.386772 -8.672745 -4.462143
v 0.074078 0.000000 11.618004
v -5.285973 -3.312691 9.570641
v -3.238613 -8.672745 6.257950
v -8.598663 -5.360046 4.210594
v -8.598663 -5.360046 -2.414787
v -3.238613 -8.672745 -4.462143
v -5.285973 -3.312691 -7.774834
v 0.074078 0.000000 -9.822197
v -5.285973 3.312691 -7.774834
v -3.238613 8.672745 -4.462143
v 3.386772 8.672745 -4.462143
v 0.074078 10.720100 0.897903
v 3.386772 8.672745 6.257950
v -3.238613 8.672745 6.257950
v -5.285973 3.312691 9.570641
v -10.646019 0.000000 0.897903
v -8.598663 5.360046 4.210594
v -8.598663 5.360046 -2.414787
v 8.746819 -5.360046 -2.414787
v 10.794174 0.000000 0.897903
v 5.434128 -3.312691 -7.774841
v 5.434128 3.312691 -7.774841
v 8.746819 5.360046 -2.414787
v 5.434128 3.312691 9.570648
v 8.746819 5.360046 4.210594
v 5.434128 -3.312691 9.570648
v 9.075127 0.000000 -4.665054
v 9.075127 0.000000 6.460861
v 5.637032 -9.001053 0.897903
v 0.074078 -5.562958 9.898956
v -5.488876 -9.001053 0.897903
v 0.074078 -5.562958 -8.103149
v 0.074078 5.562958 -8.103149
v 5.637032 9.001053 0.897903
v 0.074078 5.562958 9.898956
v -8.926971 0.000000 6.460861
v -5.488876 9.001053 0.897903
v -8.926971 0.000000 -4.665054
v 12.330688 -2.728867 -9.076271
v 3.145317 -4.160538 -14.182518
v 3.145317 -3.421417 -14.389748
v 12.330688 -1.989761 -9.283493
v -7.299896 -3.663315 -12.409142
v -7.299896 -2.924210 -12.616364
v -14.117538 -1.469879 -4.585907
v -14.117538 -0.730789 -4.793129
v -14.117531 1.393456 5.626678
v -14.117531 2.132553 5.419434
v -7.299896 3.586906 13.449928
v -7.299896 4.326004 13.242683
v 3.145309 4.084114 15.223305
v 3.145309 4.823219 15.016060
v 12.330673 2.652451 10.117035
v 12.330673 3.391541 9.909813
v 15.958282 -0.038193 0.520401
v 15.958282 0.700897 0.313156
v 15.606110 -3.533813 -11.758949
v 3.839912 -5.367737 -18.299927
v 3.839912 -4.530746 -18.534622
v 15.606110 -2.696815 -11.993622
v -9.540131 -4.730820 -16.028267
v -9.540131 -3.893845 -16.262932
v -18.273346 -1.921066 -6.006889
v -18.273346 -1.084122 -6.241570
v -18.273346 1.746780 7.075081
v -18.273346 2.583763 6.840408
v -9.540131 4.556503 17.096458
v -9.540131 5.393524 16.861832
v 3.839897 5.193428 19.368141
v 3.839897 6.030411 19.133476
v 15.606110 3.359505 12.827164
v 15.606110 4.196487 12.592499
v 20.252960 -0.087143 0.534103
v 20.252960 0.749832 0.299438
vt 0.790049 0.401964
vt 0.805306 0.424361
vt 0.769974 0.445658
vt 0.765969 0.408120
vt 0.788527 0.092910
vt 0.792245 0.109782
vt 0.765496 0.120310
vt 0.772228 0.083236
vt 0.800937 0.125495
vt 0.795076 0.145362
vt 0.722342 0.454200
vt 0.734775 0.432343
vt 0.740294 0.474707
vt 0.744415 0.412031
vt 0.721547 0.379713
vt 0.726756 0.360102
vt 0.756104 0.375356
vt 0.732495 0.395633
vt 0.734290 0.336766
vt 0.762212 0.338347
vt 0.788512 0.347199
vt 0.793087 0.374573
vt 0.763428 0.060956
vt 0.778923 0.042705
vt 0.796105 0.065428
vt 0.800162 0.031781
vt 0.812113 0.046272
vt 0.821005 0.057294
vt 0.816160 0.069200
vt 0.812454 0.080668
vt 0.801112 0.085724
vt 0.835022 0.001251
vt 0.855254 0.013158
vt 0.835081 0.035124
vt 0.815001 0.013500
vt 0.870670 0.031342
vt 0.858323 0.046258
vt 0.848748 0.057385
vt 0.834740 0.056413
vt 0.833841 0.073877
vt 0.853198 0.069493
vt 0.856362 0.081111
vt 0.845006 0.087220
vt 0.826561 0.092839
vt 0.820082 0.087075
vt 0.808697 0.101621
vt 0.814584 0.104225
vt 0.825728 0.115913
vt 0.815480 0.121333
vt 0.831132 0.143606
vt 0.847118 0.122179
vt 0.864762 0.128058
vt 0.868659 0.149714
vt 0.857917 0.176350
vt 0.829345 0.179437
vt 0.801987 0.172664
vt 0.705632 0.415191
vt 0.694409 0.449886
vt 0.669043 0.437194
vt 0.671873 0.412237
vt 0.676071 0.390646
vt 0.694604 0.385869
vt 0.690951 0.353734
vt 0.661743 0.373833
vt 0.646250 0.353568
vt 0.661424 0.329197
vt 0.682979 0.309801
vt 0.710240 0.319672
vt 0.875225 0.066085
vt 0.870883 0.086622
vt 0.893220 0.042452
vt 0.909804 0.061834
vt 0.900509 0.085595
vt 0.883305 0.094835
vt 0.904720 0.126474
vt 0.878521 0.112286
vt 0.635423 0.401592
vt 0.619938 0.362288
vt 0.642114 0.443059
vt 0.870870 0.101595
vt 0.501232 0.965179
vt 0.493817 0.929653
vt 0.503141 0.964138
vt 0.495982 0.929844
vt 0.507354 0.896162
vt 0.508987 0.897565
vt 0.538595 0.877458
vt 0.538943 0.879651
vt 0.581361 0.887797
vt 0.579873 0.889924
vt 0.603128 0.923806
vt 0.600391 0.924374
vt 0.596846 0.968212
vt 0.594630 0.966856
vt 0.563076 0.995220
vt 0.562522 0.993072
vt 0.527000 0.990488
vt 0.527940 0.988552
vt 0.514745 0.957956
vt 0.513053 0.958860
vt 0.509166 0.931158
vt 0.507253 0.931003
vt 0.518895 0.906224
vt 0.517483 0.905043
vt 0.540942 0.893024
vt 0.540697 0.891236
vt 0.570658 0.902734
vt 0.572012 0.901141
vt 0.583679 0.928333
vt 0.586049 0.927841
vt 0.581126 0.959104
vt 0.583002 0.960026
vt 0.559067 0.980301
vt 0.559552 0.982038
vt 0.533602 0.976948
vt 0.532776 0.978593
vt 0.572510 0.928016
vt 0.560301 0.932797
vt 0.552885 0.924358
vt 0.559214 0.912801
vt 0.541706 0.922736
vt 0.539088 0.909881
vt 0.532194 0.928717
vt 0.522010 0.920687
vt 0.528858 0.939312
vt 0.516105 0.939721
vt 0.533082 0.949475
vt 0.523729 0.957876
vt 0.542773 0.954605
vt 0.541048 0.967015
vt 0.553528 0.952445
vt 0.560258 0.963184
vt 0.560477 0.943904
vt 0.572746 0.947946
vn 0.942652 -0.190805 -0.273861
vn 0.942652 -0.190805 -0.273861
vn 0.942652 -0.190805 -0.273861
vn 0.942652 -0.190805 -0.273861
vn 0.751847 -0.308730 -0.582591
vn 0.751847 -0.308730 -0.582591
vn 0.751847 -0.308730 -0.582591
vn 0.751847 -0.308730 -0.582591
vn 0.633923 0.000000 -0.773397
vn 0.633922 0.000000 -0.773397
vn 0.633923 0.000000 -0.773397
vn 0.633922 0.000000 -0.773397
vn 0.751847 0.308730 -0.582591
vn 0.751847 0.308730 -0.582591
vn 0.751847 0.308730 -0.582591
vn 0.751847 0.308730 -0.582591
vn 0.942652 0.190806 -0.273861
vn 0.942652 0.190806 -0.273861
vn 0.942652 0.190806 -0.273861
vn 0.942652 0.190806 -0.273861
vn 0.751847 0.308730 0.582591
vn 0.751847 0.308730 0.582591
vn 0.751847 0.308730 0.582591
vn 0.751847 0.308730 0.582591
vn 0.633922 0.000000 0.773397
vn 0.633922 0.000000 0.773397
vn 0.633922 0.000000 0.773397
vn 0.633922 0.000000 0.773397
vn 0.751847 -0.308730 0.582591
vn 0.751847 -0.308730 0.582591
vn 0.751847 -0.308730 0.582591
vn 0.751847 -0.308730 0.582591
vn 0.942652 -0.190806 0.273861
vn 0.942652 -0.190806 0.273861
vn 0.942652 -0.190806 0.273861
vn 0.942652 -0.190806 0.273861
vn 0.942652 0.190805 0.273861
vn 0.942652 0.190805 0.273861
vn 0.942652 0.190805 0.273861
vn 0.942652 0.190805 0.273861
vn 0.773397 -0.633922 -0.000000
vn 0.773397 -0.633922 -0.000000
vn 0.773397 -0.633923 -0.000000
vn 0.773397 -0.633922 -0.000000
vn 0.582592 -0.751846 0.308730
vn 0.582592 -0.751846 0.308730
vn 0.582592 -0.751846 0.308730
vn 0.582592 -0.751846 0.308730
vn 0.273861 -0.942652 0.190805
vn 0.273861 -0.942652 0.190805
vn 0.273861 -0.942652 0.190805
vn 0.273861 -0.942652 0.190805
vn 0.273861 -0.942652 -0.190805
vn 0.273861 -0.942652 -0.190805
vn 0.273861 -0.942652 -0.190805
vn 0.273861 -0.942652 -0.190805
vn 0.582592 -0.751846 -0.308730
vn 0.582592 -0.751846 -0.308730
vn 0.582592 -0.751846 -0.308730
vn 0.582592 -0.751846 -0.308730
vn 0.190805 -0.273861 0.942652
vn 0.190805 -0.273861 0.942652
vn 0.190805 -0.273861 0.942652
vn 0.190805 -0.273861 0.942652
vn -0.190806 -0.273862 0.942652
vn -0.190806 -0.273862 0.942652
vn -0.190806 -0.273862 0.942652
vn -0.190806 -0.273862 0.942652
vn -0.308730 -0.582591 0.751847
vn -0.308730 -0.582591 0.751847
vn -0.308730 -0.582591 0.751847
vn -0.308730 -0.582591 0.751847
vn 0.000000 -0.773397 0.633922
vn 0.000000 -0.773397 0.633922
vn 0.000000 -0.773397 0.633922
vn 0.000000 -0.773397 0.633922
vn 0.308730 -0.582591 0.751846
vn 0.308730 -0.582591 0.751846
vn 0.308730 -0.582591 0.751846
vn 0.308730 -0.582591 0.751846
vn -0.273861 -0.942652 0.190806
vn -0.273861 -0.942652 0.190806
vn -0.273861 -0.942652 0.190806
vn -0.273861 -0.942652 0.190806
vn -0.582592 -0.751846 0.308730
vn -0.582592 -0.751846 0.308730
vn -0.582592 -0.751846 0.308730
vn -0.582592 -0.751846 0.308730
vn -0.773397 -0.633922 0.000000
vn -0.773397 -0.633922 0.000000
vn -0.773397 -0.633922 0.000000
vn -0.773397 -0.633922 0.000000
vn -0.582592 -0.751846 -0.308730
vn -0.582592 -0.751846 -0.308730
vn -0.582592 -0.751846 -0.308730
vn -0.582592 -0.751847 -0.308730
vn -0.273861 -0.942652 -0.190806
vn -0.273861 -0.942652 -0.190806
vn -0.273861 -0.942652 -0.190806
vn -0.273861 -0.942652 -0.190806
vn 0.308730 -0.582591 -0.751846
vn 0.308730 -0.582591 -0.751846
vn 0.308730 -0.582591 -0.751846
vn 0.308730 -0.582591 -0.751846
vn -0.000000 -0.773397 -0.633922
vn -0.000000 -0.773397 -0.633922
vn -0.000000 -0.773397 -0.633922
vn -0.000000 -0.773397 -0.633922
vn -0.308730 -0.582591 -0.751847
vn -0.308730 -0.582591 -0.751847
vn -0.308730 -0.582591 -0.751847
vn -0.308730 -0.582591 -0.751847
vn -0.190806 -0.273862 -0.942652
vn -0.190806 -0.273862 -0.942652
vn -0.190806 -0.273862 -0.942652
vn -0.190806 -0.273862 -0.942652
vn 0.190806 -0.273861 -0.942652
vn 0.190806 -0.273861 -0.942652
vn 0.190806 -0.273861 -0.942652
vn 0.190806 -0.273861 -0.942652
vn 0.190805 0.273861 -0.942652
vn 0.190805 0.273861 -0.942652
vn 0.190805 0.273861 -0.942652
vn 0.190805 0.273861 -0.942652
vn -0.190806 0.273862 -0.942652
vn -0.190806 0.273862 -0.942652
vn -0.190806 0.273862 -0.942652
vn -0.190806 0.273862 -0.942652
vn -0.308730 0.582591 -0.751847
vn -0.308730 0.582591 -0.751847
vn -0.308730 0.582591 -0.751847
vn -0.308730 0.582591 -0.751847
vn 0.000000 0.773397 -0.633922
vn 0.000000 0.773397 -0.633922
vn 0.000000 0.773397 -0.633922
vn 0.000000 0.773397 -0.633922
vn 0.308730 0.582591 -0.751847
vn 0.308730 0.582591 -0.751846
vn 0.308730 0.582591 -0.751847
vn 0.308730 0.582591 -0.751846
vn 0.773397 0.633922 0.000000
vn 0.773397 0.633922 0.000000
vn 0.773397 0.633923 0.000000
vn 0.773397 0.633922 0.000000
vn 0.582592 0.751846 -0.308730
vn 0.582592 0.751846 -0.308730
vn 0.582592 0.751846 -0.308730
vn 0.582592 0.751846 -0.308730
vn 0.273861 0.942652 -0.190805
vn 0.273861 0.942652 -0.190805
vn 0.273861 0.942652 -0.190805
vn 0.273861 0.942652 -0.190805
vn 0.273861 0.942652 0.190805
vn 0.273861 0.942652 0.190805
vn 0.273861 0.942652 0.190805
vn 0.273861 0.942652 0.190805
vn 0.582592 0.751846 0.308730
vn 0.582592 0.751846 0.308730
vn 0.582592 0.751846 0.308730
vn 0.582592 0.751846 0.308730
vn 0.308730 0.582591 0.751846
vn 0.308730 0.582591 0.751846
vn 0.308730 0.582591 0.751846
vn 0.308730 0.582591 0.751846
vn -0.000000 0.773397 0.633922
vn -0.000000 0.773397 0.633922
vn -0.000000 0.773397 0.633922
vn -0.000000 0.773397 0.633922
vn -0.308730 0.582591 0.751847
vn -0.308730 0.582591 0.751847
vn -0.308730 0.582591 0.751847
vn -0.308730 0.582591 0.751847
vn -0.190806 0.273862 0.942652
vn -0.190806 0.273862 0.942652
vn -0.190806 0.273862 0.942652
vn -0.190806 0.273862 0.942652
vn 0.190806 0.273861 0.942652
vn 0.190806 0.273861 0.942652
vn 0.190806 0.273861 0.942652
vn 0.190806 0.273861 0.942652
vn -0.942652 -0.190806 0.273861
vn -0.942652 -0.190806 0.273861
vn -0.942652 -0.190806 0.273861
vn -0.942652 -0.190806 0.273861
vn -0.751847 -0.308730 0.582591
vn -0.751847 -0.308730 0.582591
vn -0.751847 -0.308730 0.582591
vn -0.751847 -0.308730 0.582591
vn -0.633923 0.000000 0.773397
vn -0.633923 0.000000 0.773397
vn -0.633922 0.000000 0.773397
vn -0.633923 0.000000 0.773397
vn -0.751847 0.308730 0.582591
vn -0.751847 0.308730 0.582591
vn -0.751847 0.308730 0.582591
vn -0.751847 0.308730 0.582591
vn -0.942652 0.190806 0.273861
vn -0.942652 0.190806 0.273861
vn -0.942652 0.190806 0.273861
vn -0.942652 0.190806 0.273861
vn -0.773397 0.633922 -0.000000
vn -0.773397 0.633922 -0.000000
vn -0.773397 0.633922 -0.000000
vn -0.773397 0.633922 -0.000000
vn -0.582592 0.751847 0.308730
vn -0.582592 0.751846 0.308730
vn -0.582592 0.751846 0.308730
vn -0.582592 0.751847 0.308730
vn -0.273861 0.942652 0.190806
vn -0.273861 0.942652 0.190806
vn -0.273861 0.942652 0.190806
vn -0.273861 0.942652 0.190806
vn -0.273861 0.942652 -0.190806
vn -0.273861 0.942652 -0.190806
vn -0.273861 0.942652 -0.190806
vn -0.273861 0.942652 -0.190806
vn -0.582592 0.751846 -0.308730
vn -0.582592 0.751846 -0.308730
vn -0.582592 0.751846 -0.308730
vn -0.582592 0.751846 -0.308730
vn -0.942652 0.190806 -0.273861
vn -0.942652 0.190806 -0.273861
vn -0.942652 0.190806 -0.273861
vn -0.942652 0.190806 -0.273861
vn -0.751847 0.308730 -0.582591
vn -0.751847 0.308730 -0.582591
vn -0.751847 0.308730 -0.582591
vn -0.751847 0.308730 -0.582591
vn -0.633922 -0.000000 -0.773397
vn -0.633922 -0.000000 -0.773397
vn -0.633922 -0.000000 -0.773397
vn -0.633922 -0.000000 -0.773397
vn -0.751847 -0.308730 -0.582591
vn -0.751847 -0.308730 -0.582591
vn -0.751847 -0.308730 -0.582591
vn -0.751847 -0.308730 -0.582591
vn -0.942652 -0.190806 -0.273861
vn -0.942652 -0.190806 -0.273861
vn -0.942652 -0.190806 -0.273861
vn -0.942652 -0.190806 -0.273861
vn 0.499999 -0.233796 -0.833871
vn 0.499999 -0.233796 -0.833871
vn 0.499999 -0.233796 -0.833871
vn 0.500001 -0.233818 -0.833863
vn 0.500001 -0.233818 -0.833863
vn 0.500001 -0.233818 -0.833864
vn -0.173648 -0.265889 -0.948235
vn -0.173648 -0.265889 -0.948235
vn -0.173648 -0.265889 -0.948235
vn -0.173650 -0.265861 -0.948242
vn -0.173650 -0.265861 -0.948242
vn -0.173650 -0.265861 -0.948242
vn -0.766044 -0.173529 -0.618922
vn -0.766044 -0.173529 -0.618922
vn -0.766044 -0.173529 -0.618922
vn -0.766043 -0.173544 -0.618919
vn -0.766043 -0.173544 -0.618919
vn -0.766043 -0.173544 -0.618919
vn -1.000000 0.000000 0.000000
vn -1.000000 0.000000 0.000000
vn -1.000000 0.000000 0.000000
vn -1.000000 -0.000003 0.000000
vn -1.000000 -0.000003 0.000000
vn -1.000000 -0.000003 0.000000
vn -0.766044 0.173532 0.618921
vn -0.766044 0.173532 0.618921
vn -0.766044 0.173532 0.618921
vn -0.766045 0.173493 0.618930
vn -0.766045 0.173493 0.618930
vn -0.766045 0.173493 0.618930
vn -0.173650 0.265808 0.948258
vn -0.173650 0.265807 0.948257
vn -0.173650 0.265808 0.948258
vn -0.173647 0.265859 0.948244
vn -0.173647 0.265859 0.948244
vn -0.173647 0.265859 0.948244
vn 0.499999 0.233792 0.833872
vn 0.499999 0.233792 0.833872
vn 0.499999 0.233792 0.833872
vn 0.499999 0.233793 0.833871
vn 0.499999 0.233793 0.833871
vn 0.499999 0.233793 0.833871
vn 0.939692 0.092334 0.329322
vn 0.939692 0.092334 0.329322
vn 0.939692 0.092334 0.329322
vn 0.939693 0.092330 0.329322
vn 0.939693 0.092330 0.329322
vn 0.939693 0.092330 0.329322
vn 0.939693 -0.092331 -0.329322
vn 0.939693 -0.092331 -0.329322
vn 0.939693 -0.092331 -0.329322
vn 0.939692 -0.092335 -0.329322
vn 0.939692 -0.092335 -0.329322
vn 0.939692 -0.092335 -0.329322
vn -0.499998 0.233792 0.833872
vn -0.499998 0.233792 0.833872
vn -0.499998 0.233792 0.833872
vn -0.499999 0.233795 0.833871
vn -0.499999 0.233795 0.833871
vn -0.499999 0.233795 0.833871
vn 0.173648 0.265862 0.948243
vn 0.173648 0.265862 0.948243
vn 0.173648 0.265862 0.948243
vn 0.173648 0.265858 0.948244
vn 0.173648 0.265858 0.948244
vn 0.173648 0.265858 0.948244
vn 0.766043 0.173527 0.618924
vn 0.766043 0.173527 0.618924
vn 0.766043 0.173527 0.618924
vn 0.766043 0.173531 0.618923
vn 0.766043 0.173531 0.618923
vn 0.766043 0.173531 0.618923
vn 1.000000 0.000000 -0.000001
vn 1.000000 0.000000 -0.000001
vn 1.000000 0.000000 -0.000001
vn 1.000000 0.000001 -0.000001
vn 1.000000 0.000001 -0.000001
vn 1.000000 0.000001 -0.000001
vn 0.766044 -0.173546 -0.618917
vn 0.766044 -0.173546 -0.618917
vn 0.766044 -0.173546 -0.618917
vn 0.766044 -0.173547 -0.618917
vn 0.766044 -0.173547 -0.618917
vn 0.766044 -0.173547 -0.618917
vn 0.173647 -0.265888 -0.948235
vn 0.173647 -0.265888 -0.948235
vn 0.173647 -0.265888 -0.948235
vn 0.173648 -0.265885 -0.948236
vn 0.173648 -0.265885 -0.948236
vn 0.173648 -0.265885 -0.948236
vn -0.500000 -0.233816 -0.833865
vn -0.500000 -0.233816 -0.833864
vn -0.500000 -0.233816 -0.833864
vn -0.499999 -0.233795 -0.833871
vn -0.499999 -0.233795 -0.833871
vn -0.499999 -0.233795 -0.833871
vn -0.939692 -0.092332 -0.329323
vn -0.939692 -0.092332 -0.329323
vn -0.939692 -0.092332 -0.329323
vn -0.939692 -0.092344 -0.329320
vn -0.939692 -0.092344 -0.329320
vn -0.939692 -0.092344 -0.329320
vn -0.939693 0.092339 0.329318
vn -0.939693 0.092339 0.329318
vn -0.939693 0.092339 0.329318
vn -0.939692 0.092335 0.329322
vn -0.939692 0.092335 0.329322
vn -0.939692 0.092335 0.329322
vn -0.006254 -0.959870 0.280374
vn -0.006254 -0.959870 0.280374
vn -0.006254 -0.959870 0.280374
vn -0.006254 -0.959870 0.280374
vn -0.006255 0.965720 -0.259511
vn -0.006255 0.965720 -0.259511
vn -0.006255 0.965720 -0.259511
vn -0.006255 0.965720 -0.259511
vn 0.002150 -0.959504 0.281685
vn 0.002150 -0.959504 0.281685
vn 0.002150 -0.959504 0.281685
vn 0.002150 -0.959505 0.281685
vn 0.002149 0.966088 -0.258204
vn 0.002149 0.966088 -0.258204
vn 0.002149 0.966088 -0.258204
vn 0.002149 0.966088 -0.258204
vn 0.009401 -0.960668 0.277540
vn 0.009401 -0.960668 0.277540
vn 0.009401 -0.960668 0.277540
vn 0.009401 -0.960668 0.277540
vn 0.009398 0.964927 -0.262350
vn 0.009398 0.964927 -0.262350
vn 0.009398 0.964927 -0.262350
vn 0.009398 0.964927 -0.262350
vn 0.012227 -0.962799 0.269944
vn 0.012227 -0.962799 0.269944
vn 0.012227 -0.962799 0.269944
vn 0.012227 -0.962799 0.269944
vn 0.012230 0.962798 -0.269945
vn 0.012230 0.962798 -0.269945
vn 0.012230 0.962798 -0.269945
vn 0.012230 0.962798 -0.269945
vn 0.009400 -0.964927 0.262349
vn 0.009400 -0.964927 0.262349
vn 0.009400 -0.964927 0.262349
vn 0.009400 -0.964927 0.262349
vn 0.009404 0.960667 -0.277543
vn 0.009404 0.960667 -0.277543
vn 0.009404 0.960667 -0.277543
vn 0.009404 0.960667 -0.277543
vn 0.002151 -0.966089 0.258201
vn 0.002151 -0.966089 0.258201
vn 0.002151 -0.966089 0.258201
vn 0.002151 -0.966089 0.258201
vn 0.002151 0.959505 -0.281685
vn 0.002151 0.959505 -0.281685
vn 0.002151 0.959505 -0.281685
vn 0.002151 0.959505 -0.281685
vn -0.006255 -0.965720 0.259511
vn -0.006255 -0.965720 0.259511
vn -0.006255 -0.965720 0.259511
vn -0.006255 -0.965720 0.259511
vn -0.006253 0.959871 -0.280373
vn -0.006253 0.959871 -0.280373
vn -0.006253 0.959871 -0.280373
vn -0.006253 0.959871 -0.280373
vn -0.011835 -0.963957 0.265794
vn -0.011835 -0.963957 0.265794
vn -0.011835 -0.963957 0.265794
vn -0.011835 -0.963957 0.265794
vn -0.011834 0.961631 -0.274089
vn -0.011834 0.961631 -0.274089
vn -0.011834 0.961631 -0.274089
vn -0.011834 0.961631 -0.274089
vn -0.011835 -0.961631 0.274091
vn -0.011835 -0.961631 0.274091
vn -0.011835 -0.961631 0.274091
vn -0.011835 -0.961631 0.274091
vn -0.011834 0.963957 -0.265795
vn -0.011834 0.963957 -0.265795
vn -0.011834 0.963957 -0.265795
vn -0.011834 0.963957 -0.265795
s off
usemtl lambert28SG
f 1/1/1 43/2/2 51/3/3 44/4/4
f 5/5/5 45/6/6 51/7/7 43/8/8
f 3/9/9 46/10/10 51/7/11 45/6/12
f 4/11/13 47/12/14 51/3/15 46/13/16
f 2/14/17 44/4/18 51/3/19 47/12/20
f 8/15/21 48/16/22 52/17/23 49/18/24
f 6/19/25 50/20/26 52/17/27 48/16/28
f 7/21/29 21/22/30 52/17/31 50/20/32
f 1/1/33 44/4/34 52/17/35 21/22/36
f 2/14/37 49/18/38 52/17/39 44/4/40
f 1/23/41 21/24/42 53/25/43 43/8/44
f 7/26/45 22/27/46 53/25/47 21/24/48
f 17/28/49 23/29/50 53/25/51 22/27/52
f 20/30/53 24/31/54 53/25/55 23/29/56
f 5/5/57 43/8/58 53/25/59 24/31/60
f 6/32/61 25/33/62 54/34/63 50/35/64
f 11/36/65 26/37/66 54/34/67 25/33/68
f 12/38/69 27/39/70 54/34/71 26/37/72
f 17/28/73 22/27/74 54/34/75 27/39/76
f 7/26/77 50/35/78 54/34/79 22/27/80
f 17/28/81 27/39/82 55/40/83 23/29/84
f 12/38/85 28/41/86 55/40/87 27/39/88
f 9/42/89 29/43/90 55/40/91 28/41/92
f 16/44/93 30/45/94 55/40/95 29/43/96
f 20/30/97 23/29/98 55/40/99 30/45/100
f 5/5/101 24/31/102 56/46/103 45/6/104
f 20/30/105 30/45/106 56/46/107 24/31/108
f 16/44/109 31/47/110 56/46/111 30/45/112
f 14/48/113 32/49/114 56/46/115 31/47/116
f 3/9/117 45/6/118 56/46/119 32/49/120
f 3/9/121 32/49/122 57/50/123 46/10/124
f 14/48/125 33/51/126 57/50/127 32/49/128
f 15/52/129 34/53/130 57/50/131 33/51/132
f 19/54/133 35/55/134 57/50/135 34/53/136
f 4/56/137 46/10/138 57/50/139 35/55/140
f 2/14/141 47/12/142 58/57/143 49/18/144
f 4/11/145 35/58/146 58/57/147 47/12/148
f 19/59/149 36/60/150 58/57/151 35/58/152
f 18/61/153 37/62/154 58/57/155 36/60/156
f 8/15/157 49/18/158 58/57/159 37/62/160
f 8/15/161 37/62/162 59/63/163 48/16/164
f 18/61/165 38/64/166 59/63/167 37/62/168
f 13/65/169 39/66/170 59/63/171 38/64/172
f 11/67/173 25/68/174 59/63/175 39/66/176
f 6/19/177 48/16/178 59/63/179 25/68/180
f 9/42/181 28/41/182 60/69/183 40/70/184
f 12/38/185 26/37/186 60/69/187 28/41/188
f 11/36/189 39/71/190 60/69/191 26/37/192
f 13/72/193 41/73/194 60/69/195 39/71/196
f 10/74/197 40/70/198 60/69/199 41/73/200
f 10/74/201 41/73/202 61/75/203 42/76/204
f 13/65/205 38/64/206 61/77/207 41/78/208
f 18/61/209 36/60/210 61/77/211 38/64/212
f 19/59/213 34/79/214 61/77/215 36/60/216
f 15/52/217 42/76/218 61/75/219 34/53/220
f 10/74/221 42/76/222 62/80/223 40/70/224
f 15/52/225 33/51/226 62/80/227 42/76/228
f 14/48/229 31/47/230 62/80/231 33/51/232
f 16/44/233 29/43/234 62/80/235 31/47/236
f 9/42/237 40/70/238 62/80/239 29/43/240
f 81/81/241 82/82/242 84/83/243
f 84/83/244 82/82/245 83/84/246
f 82/82/247 85/85/248 83/84/249
f 83/84/250 85/85/251 86/86/252
f 85/85/253 87/87/254 86/86/255
f 86/86/256 87/87/257 88/88/258
f 87/87/259 89/89/260 88/88/261
f 88/88/262 89/89/263 90/90/264
f 89/89/265 91/91/266 90/90/267
f 90/90/268 91/91/269 92/92/270
f 91/91/271 93/93/272 92/92/273
f 92/92/274 93/93/275 94/94/276
f 93/93/277 95/95/278 94/94/279
f 94/94/280 95/95/281 96/96/282
f 95/95/283 97/97/284 96/96/285
f 96/96/286 97/97/287 98/98/288
f 97/97/289 81/81/290 98/98/291
f 98/98/292 81/81/293 84/83/294
f 63/99/295 66/100/296 64/101/297
f 64/101/298 66/100/299 65/102/300
f 64/101/301 65/102/302 67/103/303
f 67/103/304 65/102/305 68/104/306
f 67/103/307 68/104/308 69/105/309
f 69/105/310 68/104/311 70/106/312
f 69/105/313 70/106/314 71/107/315
f 71/107/316 70/106/317 72/108/318
f 71/107/319 72/108/320 73/109/321
f 73/109/322 72/108/323 74/110/324
f 73/109/325 74/110/326 75/111/327
f 75/111/328 74/110/329 76/112/330
f 75/111/331 76/112/332 77/113/333
f 77/113/334 76/112/335 78/114/336
f 77/113/337 78/114/338 79/115/339
f 79/115/340 78/114/341 80/116/342
f 79/115/343 80/116/344 63/99/345
f 63/99/346 80/116/347 66/100/348
f 81/117/349 63/118/350 64/119/351 82/120/352
f 65/102/353 66/100/354 84/83/355 83/84/356
f 82/120/357 64/119/358 67/121/359 85/122/360
f 68/104/361 65/102/362 83/84/363 86/86/364
f 85/122/365 67/121/366 69/123/367 87/124/368
f 70/106/369 68/104/370 86/86/371 88/88/372
f 87/124/373 69/123/374 71/125/375 89/126/376
f 90/90/377 72/108/378 70/106/379 88/88/380
f 71/125/381 73/127/382 91/128/383 89/126/384
f 92/92/385 74/110/386 72/108/387 90/90/388
f 73/127/389 75/129/390 93/130/391 91/128/392
f 94/94/393 76/112/394 74/110/395 92/92/396
f 75/129/397 77/131/398 95/132/399 93/130/400
f 96/96/401 78/114/402 76/112/403 94/94/404
f 77/131/405 79/133/406 97/134/407 95/132/408
f 98/98/409 80/116/410 78/114/411 96/96/412
f 97/134/413 79/133/414 63/118/415 81/117/416
f 66/100/417 80/116/418 98/98/419 84/83/420
