# This file uses centimeters as units for non-parametric coordinates.

mtllib ufo.mtl
v 5.249187 2.180090 -3.255232
v 2.685185 2.180090 -5.476941
v -0.672926 2.180090 -5.959763
v -3.758997 2.180090 -4.550401
v -5.593211 2.180090 -1.696317
v -5.593211 2.180090 1.696330
v -3.758997 2.180090 4.550409
v -0.672926 2.180090 5.959764
v 2.685185 2.180090 5.476942
v 5.249187 2.180090 3.255232
v 6.205014 2.180090 0.000000
v -9.807497 -0.173398 11.321345
v -14.370963 -0.173398 4.220440
v -14.370963 -0.173398 -4.220414
v -9.807487 -0.173398 -11.321324
v -2.129415 -0.173398 -14.827783
v 6.225534 -0.173398 -13.626531
v 12.604709 -0.173398 -8.098948
v 14.982763 -0.173398 -0.000008
v 12.604698 -0.173398 8.098944
v 6.225522 -0.173398 13.626532
v -2.129415 -0.173398 14.827795
v 1.573800 6.316668 -0.834929
v 0.916159 6.316668 -1.404767
v 0.183953 6.496644 0.000000
v 0.054845 6.316668 -1.528613
v -0.736696 6.316668 -1.167121
v -1.207147 6.316668 -0.435085
v -1.207147 6.316668 0.435090
v -0.736696 6.316668 1.167126
v 0.054845 6.316668 1.528613
v 0.916159 6.316668 1.404771
v 1.573800 6.316668 0.834930
v 1.818947 6.316668 0.000000
v 1.566538 5.704638 2.901904
v -0.212721 5.704638 3.157718
v -1.847836 5.704638 2.410982
v -2.819673 5.704638 0.898784
v -2.819673 5.704638 -0.898775
v -1.847836 5.704638 -2.410981
v -0.212721 5.704638 -3.157709
v 1.566538 5.704638 -2.901895
v 2.925045 5.704638 -1.724745
v 3.431470 5.704638 0.000000
v 2.925045 5.704638 1.724749
v -0.474176 4.643676 4.749585
v -2.933579 4.643676 3.626401
v -4.395345 4.643676 1.351870
v -4.395345 4.643676 -1.351869
v -2.933579 4.643676 -3.626401
v -0.474164 4.643676 -4.749577
v 2.202053 4.643676 -4.364789
v 4.245404 4.643676 -2.594224
v 5.007143 4.643676 0.000000
v 4.245404 4.643676 2.594220
v 2.202053 4.643676 4.364798
v -0.624681 3.036731 5.665954
v -3.558608 3.036731 4.326072
v -5.302389 3.036731 1.612702
v -5.302389 3.036731 -1.612702
v -3.558608 3.036731 -4.326059
v -0.624670 3.036731 -5.665949
v 2.567895 3.036731 -5.206939
v 5.005480 3.036731 -3.094748
v 5.914190 3.036731 0.000000
v 5.005480 3.036731 3.094748
v 2.567895 3.036731 5.206947
v 5.249187 -3.836235 -3.255232
v 2.685185 -3.836235 -5.476941
v -0.672926 -3.836235 -5.959759
v -3.758997 -3.836235 -4.550401
v -5.593211 -3.836235 -1.696317
v -5.593211 -3.836235 1.696330
v -3.758997 -3.836235 4.550409
v -0.672926 -3.836235 5.959764
v 2.685185 -3.836235 5.476942
v 5.249187 -3.836235 3.255232
v 6.205014 -3.836235 0.000000
v -9.807497 -1.482759 11.321345
v -14.370972 -1.482759 4.220440
v -14.370963 -1.482759 -4.220414
v -9.807487 -1.482759 -11.321324
v -2.129415 -1.482759 -14.827783
v 6.225534 -1.482759 -13.626531
v 12.604709 -1.482759 -8.098948
v 14.982763 -1.482759 0.000000
v 12.604698 -1.482759 8.098944
v 6.225522 -1.482759 13.626532
v -2.129415 -1.482759 14.827795
vt 0.445122 0.713461
vt 0.486369 0.564792
vt 0.601119 0.462561
vt 0.752443 0.438953
vt 0.892139 0.500759
vt 0.976472 0.627840
vt 0.979469 0.780338
vt 0.899918 0.910791
vt 0.762160 0.977857
vt 0.609642 0.959470
vt 0.491190 0.860908
vt 0.715258 0.710571
vt 0.694795 0.711542
vt 0.697712 0.700774
vt 0.705891 0.693319
vt 0.716751 0.691529
vt 0.726845 0.696009
vt 0.732963 0.705328
vt 0.733153 0.716500
vt 0.727360 0.725990
vt 0.717450 0.730768
vt 0.706554 0.729352
vt 0.698091 0.722209
vt 0.816243 0.678901
vt 0.817383 0.738822
vt 0.783277 0.628800
vt 0.728506 0.604255
vt 0.669366 0.613684
vt 0.624824 0.654012
vt 0.608833 0.712470
vt 0.626791 0.770459
vt 0.672882 0.809166
vt 0.732383 0.816582
vt 0.786305 0.790185
vt 0.637336 0.661930
vt 0.623582 0.712261
vt 0.675697 0.627205
vt 0.726586 0.619079
vt 0.773735 0.640153
vt 0.802154 0.683324
vt 0.803130 0.734998
vt 0.776329 0.779223
vt 0.729920 0.801897
vt 0.678717 0.795509
vt 0.639041 0.762159
vt 0.742930 0.742962
vt 0.721450 0.753296
vt 0.755407 0.722425
vt 0.755018 0.698292
vt 0.741857 0.678072
vt 0.719951 0.668364
vt 0.696486 0.672290
vt 0.678801 0.688395
vt 0.672348 0.711735
vt 0.679598 0.734801
vt 0.697944 0.750191
vt 0.777876 0.728251
vt 0.758681 0.759885
vt 0.777191 0.691202
vt 0.756854 0.660269
vt 0.723154 0.645256
vt 0.686824 0.651099
vt 0.659402 0.675927
vt 0.649554 0.711918
vt 0.660620 0.747573
vt 0.688979 0.771428
vt 0.725526 0.776029
vt 0.093312 0.129471
vt 0.049225 0.283366
vt 0.094874 0.434730
vt 0.213350 0.537085
vt 0.367434 0.560741
vt 0.510887 0.499034
vt 0.600096 0.369503
vt 0.605702 0.210613
vt 0.523017 0.072632
vt 0.376904 0.001992
vt 0.215629 0.023475
vt 0.229491 0.219239
vt 0.281764 0.174672
vt 0.350035 0.165691
vt 0.412104 0.195288
vt 0.447923 0.253645
vt 0.446362 0.321752
vt 0.408453 0.378010
vt 0.346432 0.405045
vt 0.279632 0.394662
vt 0.228759 0.349998
vt 0.209899 0.284708
vt 0.001255 0.164622
vt 0.001684 0.693670
vt 0.021874 0.693670
vt 0.021444 0.164622
vt 0.001255 0.310894
vt 0.021444 0.310895
vt 0.001255 0.449655
vt 0.021444 0.449655
vt 0.001255 0.588773
vt 0.021444 0.588773
vt 0.001684 0.027268
vt 0.021874 0.027269
vt 0.001684 0.109952
vt 0.021874 0.109952
vt 0.001255 0.733024
vt 0.021444 0.733024
vt 0.001685 0.195635
vt 0.021874 0.545488
vt 0.001684 0.545488
vt 0.021874 0.195635
vt 0.001684 0.293996
vt 0.021874 0.293996
vt 0.001684 0.410427
vt 0.021874 0.410427
vt 0.021444 0.012882
vt 0.001255 0.012882
vn 0.139101 0.941555 -0.306797
vn 0.285266 0.940623 -0.183988
vn 0.285266 -0.940623 -0.183988
vn 0.139101 -0.941555 -0.306797
vn -0.048433 0.942740 -0.329994
vn 0.139101 0.941555 -0.306797
vn 0.139101 -0.941555 -0.306797
vn -0.048433 -0.942740 -0.329994
vn -0.217009 0.943792 -0.249325
vn -0.048433 0.942740 -0.329994
vn -0.048433 -0.942740 -0.329994
vn -0.217009 -0.943792 -0.249325
vn -0.315548 0.944403 -0.092372
vn -0.217009 0.943792 -0.249325
vn -0.217009 -0.943792 -0.249325
vn -0.315548 -0.944403 -0.092372
vn -0.315548 0.944403 0.092372
vn -0.315548 0.944403 -0.092372
vn -0.315548 -0.944403 -0.092372
vn -0.315548 -0.944403 0.092372
vn -0.217009 0.943792 0.249325
vn -0.315548 0.944403 0.092372
vn -0.315548 -0.944403 0.092372
vn -0.217009 -0.943792 0.249325
vn -0.048433 0.942740 0.329994
vn -0.217009 0.943792 0.249325
vn -0.217009 -0.943792 0.249325
vn -0.048433 -0.942740 0.329994
vn 0.139101 0.941556 0.306797
vn -0.048433 0.942740 0.329994
vn -0.048433 -0.942740 0.329994
vn 0.139101 -0.941556 0.306797
vn 0.285266 0.940623 0.183988
vn 0.139101 0.941556 0.306797
vn 0.139101 -0.941556 0.306797
vn 0.285266 -0.940623 0.183988
vn 0.340432 0.940269 0.000000
vn 0.285266 0.940623 0.183988
vn 0.285266 -0.940623 0.183988
vn 0.340432 -0.940269 0.000000
vn 0.285266 0.940623 -0.183988
vn 0.340432 0.940269 0.000000
vn 0.340432 -0.940269 0.000000
vn 0.285266 -0.940623 -0.183988
vn 0.002799 0.999996 0.000000
vn 0.234392 0.960556 -0.149639
vn 0.118137 0.959157 -0.257024
vn -0.038042 0.960526 -0.275577
vn 0.002799 0.999996 0.000000
vn -0.038042 0.960526 -0.275577
vn -0.185450 0.958871 -0.214882
vn -0.278169 0.956356 -0.089471
vn -0.278169 0.956356 -0.089471
vn -0.278169 0.956356 0.089470
vn 0.002799 0.999996 0.000000
vn 0.002799 0.999996 0.000000
vn -0.278169 0.956356 0.089470
vn -0.185450 0.958871 0.214882
vn -0.038042 0.960526 0.275577
vn 0.002799 0.999996 0.000000
vn -0.038042 0.960526 0.275577
vn 0.118137 0.959157 0.257024
vn 0.234392 0.960556 0.149639
vn 0.002799 0.999996 0.000000
vn 0.234392 0.960556 0.149639
vn 0.282334 0.959316 0.000000
vn 0.234392 0.960556 -0.149639
vn -0.271639 0.959072 0.079964
vn -0.315548 0.944403 0.092372
vn -0.217009 0.943792 0.249325
vn -0.186084 0.958596 0.215561
vn -0.271638 0.959072 -0.079964
vn -0.315548 0.944403 -0.092372
vn -0.315548 0.944403 0.092372
vn -0.271639 0.959072 0.079964
vn -0.217009 0.943792 -0.249325
vn -0.315548 0.944403 -0.092372
vn -0.271638 0.959072 -0.079964
vn -0.186084 0.958596 -0.215561
vn -0.048433 0.942740 -0.329994
vn -0.217009 0.943792 -0.249325
vn -0.186084 0.958596 -0.215561
vn -0.040216 0.957779 -0.284678
vn 0.139101 0.941555 -0.306797
vn -0.048433 0.942740 -0.329994
vn -0.040216 0.957779 -0.284678
vn 0.121293 0.956867 -0.263996
vn 0.285266 0.940623 -0.183988
vn 0.139101 0.941555 -0.306797
vn 0.121293 0.956867 -0.263996
vn 0.246594 0.956153 -0.157999
vn 0.340432 0.940269 0.000000
vn 0.285266 0.940623 -0.183988
vn 0.246594 0.956153 -0.157999
vn 0.293749 0.955883 0.000000
vn 0.246594 0.956153 0.157999
vn 0.285266 0.940623 0.183988
vn 0.340432 0.940269 0.000000
vn 0.293749 0.955883 0.000000
vn 0.121293 0.956867 0.263997
vn 0.139101 0.941556 0.306797
vn 0.285266 0.940623 0.183988
vn 0.246594 0.956153 0.157999
vn -0.040216 0.957779 0.284678
vn -0.048433 0.942740 0.329994
vn 0.139101 0.941556 0.306797
vn 0.121293 0.956867 0.263997
vn -0.186084 0.958596 0.215561
vn -0.217009 0.943792 0.249325
vn -0.048433 0.942740 0.329994
vn -0.040216 0.957779 0.284678
vn 0.246594 0.956153 -0.157999
vn 0.121293 0.956867 -0.263996
vn 0.374221 0.431418 -0.820876
vn 0.759955 0.428396 -0.488820
vn 0.121293 0.956867 -0.263996
vn -0.040216 0.957779 -0.284678
vn -0.128763 0.435349 -0.891006
vn 0.374221 0.431418 -0.820876
vn -0.040216 0.957779 -0.284678
vn -0.186084 0.958596 -0.215561
vn -0.588776 0.438934 -0.678734
vn -0.128763 0.435349 -0.891006
vn -0.186084 0.958596 -0.215561
vn -0.271638 0.959072 -0.079964
vn -0.861178 0.441054 -0.252675
vn -0.588776 0.438934 -0.678734
vn -0.861178 0.441054 -0.252675
vn -0.271638 0.959072 -0.079964
vn -0.271639 0.959072 0.079964
vn -0.861178 0.441054 0.252675
vn -0.861178 0.441054 0.252675
vn -0.271639 0.959072 0.079964
vn -0.186084 0.958596 0.215561
vn -0.588776 0.438935 0.678733
vn -0.588776 0.438935 0.678733
vn -0.186084 0.958596 0.215561
vn -0.040216 0.957779 0.284678
vn -0.128763 0.435349 0.891006
vn -0.128763 0.435349 0.891006
vn -0.040216 0.957779 0.284678
vn 0.121293 0.956867 0.263997
vn 0.374222 0.431418 0.820875
vn 0.374222 0.431418 0.820875
vn 0.121293 0.956867 0.263997
vn 0.246594 0.956153 0.157999
vn 0.759956 0.428396 0.488820
vn 0.759956 0.428396 0.488820
vn 0.246594 0.956153 0.157999
vn 0.293749 0.955883 0.000000
vn 0.904127 0.427265 0.000000
vn 0.293749 0.955883 0.000000
vn 0.246594 0.956153 -0.157999
vn 0.759955 0.428396 -0.488820
vn 0.904127 0.427265 0.000000
vn -0.038042 0.960526 0.275577
vn -0.069876 0.868587 0.490586
vn 0.208156 0.866171 0.454334
vn 0.118137 0.959157 0.257024
vn -0.185450 0.958871 0.214882
vn -0.321635 0.870755 0.371937
vn -0.069876 0.868587 0.490586
vn -0.038042 0.960526 0.275577
vn -0.278169 0.956356 0.089470
vn -0.469591 0.872021 0.138074
vn -0.321635 0.870755 0.371937
vn -0.185450 0.958871 0.214882
vn -0.278169 0.956356 -0.089471
vn -0.469590 0.872021 -0.138074
vn -0.469591 0.872021 0.138074
vn -0.278169 0.956356 0.089470
vn -0.321635 0.870755 -0.371937
vn -0.469590 0.872021 -0.138074
vn -0.278169 0.956356 -0.089471
vn -0.185450 0.958871 -0.214882
vn -0.069876 0.868587 -0.490586
vn -0.321635 0.870755 -0.371937
vn -0.185450 0.958871 -0.214882
vn -0.038042 0.960526 -0.275577
vn 0.208156 0.866171 -0.454334
vn -0.069876 0.868587 -0.490586
vn -0.038042 0.960526 -0.275577
vn 0.118137 0.959157 -0.257024
vn 0.423348 0.864286 -0.271635
vn 0.208156 0.866171 -0.454334
vn 0.118137 0.959157 -0.257024
vn 0.234392 0.960556 -0.149639
vn 0.504221 0.863575 0.000000
vn 0.423348 0.864286 -0.271635
vn 0.234392 0.960556 -0.149639
vn 0.282334 0.959316 0.000000
vn 0.234392 0.960556 0.149639
vn 0.423348 0.864286 0.271635
vn 0.504221 0.863575 0.000000
vn 0.282334 0.959316 0.000000
vn 0.118137 0.959157 0.257024
vn 0.208156 0.866171 0.454334
vn 0.423348 0.864286 0.271635
vn 0.234392 0.960556 0.149639
vn -0.321635 0.870755 0.371937
vn -0.498678 0.648018 0.575667
vn -0.108712 0.644248 0.757051
vn -0.069876 0.868587 0.490586
vn -0.469591 0.872021 0.138074
vn -0.728947 0.650235 0.214080
vn -0.498678 0.648018 0.575667
vn -0.321635 0.870755 0.371937
vn -0.469590 0.872021 -0.138074
vn -0.728947 0.650235 -0.214080
vn -0.728947 0.650235 0.214080
vn -0.469591 0.872021 0.138074
vn -0.498678 0.648018 -0.575667
vn -0.728947 0.650235 -0.214080
vn -0.469590 0.872021 -0.138074
vn -0.321635 0.870755 -0.371937
vn -0.108712 0.644248 -0.757051
vn -0.498678 0.648018 -0.575667
vn -0.321635 0.870755 -0.371937
vn -0.069876 0.868587 -0.490586
vn 0.319274 0.640086 -0.698823
vn -0.108712 0.644248 -0.757051
vn -0.069876 0.868587 -0.490586
vn 0.208156 0.866171 -0.454334
vn 0.648623 0.636866 -0.416761
vn 0.319274 0.640086 -0.698823
vn 0.208156 0.866171 -0.454334
vn 0.423348 0.864286 -0.271635
vn 0.771972 0.635656 0.000000
vn 0.648623 0.636866 -0.416761
vn 0.423348 0.864286 -0.271635
vn 0.504221 0.863575 0.000000
vn 0.423348 0.864286 0.271635
vn 0.648623 0.636866 0.416761
vn 0.771972 0.635656 0.000000
vn 0.504221 0.863575 0.000000
vn 0.208156 0.866171 0.454334
vn 0.319274 0.640086 0.698823
vn 0.648623 0.636866 0.416761
vn 0.423348 0.864286 0.271635
vn -0.069876 0.868587 0.490586
vn -0.108712 0.644248 0.757051
vn 0.319274 0.640086 0.698823
vn 0.208156 0.866171 0.454334
vn -0.498678 0.648018 0.575667
vn -0.588776 0.438935 0.678733
vn -0.128763 0.435349 0.891006
vn -0.108712 0.644248 0.757051
vn -0.728947 0.650235 0.214080
vn -0.861178 0.441054 0.252675
vn -0.588776 0.438935 0.678733
vn -0.498678 0.648018 0.575667
vn -0.728947 0.650235 -0.214080
vn -0.861178 0.441054 -0.252675
vn -0.861178 0.441054 0.252675
vn -0.728947 0.650235 0.214080
vn -0.588776 0.438934 -0.678734
vn -0.861178 0.441054 -0.252675
vn -0.728947 0.650235 -0.214080
vn -0.498678 0.648018 -0.575667
vn -0.128763 0.435349 -0.891006
vn -0.588776 0.438934 -0.678734
vn -0.498678 0.648018 -0.575667
vn -0.108712 0.644248 -0.757051
vn 0.374221 0.431418 -0.820876
vn -0.128763 0.435349 -0.891006
vn -0.108712 0.644248 -0.757051
vn 0.319274 0.640086 -0.698823
vn 0.759955 0.428396 -0.488820
vn 0.374221 0.431418 -0.820876
vn 0.319274 0.640086 -0.698823
vn 0.648623 0.636866 -0.416761
vn 0.904127 0.427265 0.000000
vn 0.759955 0.428396 -0.488820
vn 0.648623 0.636866 -0.416761
vn 0.771972 0.635656 0.000000
vn 0.648623 0.636866 0.416761
vn 0.759956 0.428396 0.488820
vn 0.904127 0.427265 0.000000
vn 0.771972 0.635656 0.000000
vn 0.319274 0.640086 0.698823
vn 0.374222 0.431418 0.820875
vn 0.759956 0.428396 0.488820
vn 0.648623 0.636866 0.416761
vn -0.108712 0.644248 0.757051
vn -0.128763 0.435349 0.891006
vn 0.374222 0.431418 0.820875
vn 0.319274 0.640086 0.698823
vn 0.000000 -1.000000 0.000000
vn 0.000000 -1.000000 0.000000
vn 0.000000 -1.000000 0.000000
vn 0.000000 -1.000000 0.000000
vn 0.000000 -1.000000 0.000000
vn 0.000000 -1.000000 0.000000
vn 0.000000 -1.000000 0.000000
vn 0.000000 -1.000000 0.000000
vn 0.000000 -1.000000 0.000000
vn 0.000000 -1.000000 0.000000
vn 0.000000 -1.000000 0.000000
vn 0.000000 -1.000000 0.000000
vn 0.000000 -1.000000 0.000000
vn 0.000000 -1.000000 0.000000
vn 0.000000 -1.000000 0.000000
vn 0.000000 -1.000000 0.000000
vn 0.000000 -1.000000 0.000000
vn -0.000000 -1.000000 -0.000001
vn 0.000000 -1.000000 0.000000
vn -0.217009 -0.943792 0.249325
vn -0.315548 -0.944403 0.092372
vn -0.239363 -0.968367 0.070507
vn -0.163906 -0.967997 0.190046
vn -0.315548 -0.944403 0.092372
vn -0.315548 -0.944403 -0.092372
vn -0.239363 -0.968367 -0.070507
vn -0.239363 -0.968367 0.070507
vn -0.217009 -0.943792 -0.249325
vn -0.163906 -0.967997 -0.190046
vn -0.239363 -0.968367 -0.070507
vn -0.315548 -0.944403 -0.092372
vn -0.048433 -0.942740 -0.329994
vn -0.035294 -0.967361 -0.250931
vn -0.163906 -0.967997 -0.190046
vn -0.217009 -0.943792 -0.249325
vn 0.139101 -0.941555 -0.306797
vn 0.107050 -0.966651 -0.232651
vn -0.035294 -0.967361 -0.250931
vn -0.048433 -0.942740 -0.329994
vn 0.285266 -0.940623 -0.183988
vn 0.217438 -0.966095 -0.139216
vn 0.107050 -0.966651 -0.232651
vn 0.139101 -0.941555 -0.306797
vn 0.340432 -0.940269 0.000000
vn 0.258972 -0.965885 0.000000
vn 0.217438 -0.966095 -0.139216
vn 0.285266 -0.940623 -0.183988
vn 0.340432 -0.940269 0.000000
vn 0.285266 -0.940623 0.183988
vn 0.217438 -0.966095 0.139216
vn 0.258972 -0.965885 0.000000
vn 0.285266 -0.940623 0.183988
vn 0.139101 -0.941556 0.306797
vn 0.107050 -0.966651 0.232651
vn 0.217438 -0.966095 0.139216
vn 0.139101 -0.941556 0.306797
vn -0.048433 -0.942740 0.329994
vn -0.035294 -0.967361 0.250931
vn 0.107050 -0.966651 0.232651
vn -0.048433 -0.942740 0.329994
vn -0.217009 -0.943792 0.249325
vn -0.163906 -0.967997 0.190046
vn -0.035294 -0.967361 0.250931
s off
usemtl ufo:lambert3SG
f 17/90/1 18/115/2 85/114/3 84/93/4
f 16/94/5 17/90/6 84/93/7 83/95/8
f 15/96/9 16/94/10 83/95/11 82/97/12
f 14/98/13 15/96/14 82/97/15 81/99/16
f 13/104/17 14/98/18 81/99/19 80/105/20
f 12/102/21 13/100/22 80/101/23 79/103/24
f 22/106/25 12/102/26 79/103/27 89/109/28
f 21/110/29 22/106/30 89/109/31 88/111/32
f 20/112/33 21/110/34 88/111/35 87/113/36
f 19/108/37 20/112/38 87/113/39 86/107/40
f 18/91/41 19/108/42 86/107/43 85/92/44
f 25/12/45 23/13/46 24/14/47 26/15/48
f 25/12/49 26/15/50 27/16/51 28/17/52
f 28/17/53 29/18/54 25/12/55
f 25/12/56 29/18/57 30/19/58 31/20/59
f 25/12/60 31/20/61 32/21/62 33/22/63
f 25/12/64 33/22/65 34/23/66 23/13/67
f 6/24/68 13/6/69 12/7/70 7/25/71
f 5/26/72 14/5/73 13/6/74 6/24/75
f 15/4/76 14/5/77 5/26/78 4/27/79
f 16/3/80 15/4/81 4/27/82 3/28/83
f 17/2/84 16/3/85 3/28/86 2/29/87
f 18/1/88 17/2/89 2/29/90 1/30/91
f 19/11/92 18/1/93 1/30/94 11/31/95
f 10/32/96 20/10/97 19/11/98 11/31/99
f 9/33/100 21/9/101 20/10/102 10/32/103
f 8/34/104 22/8/105 21/9/106 9/33/107
f 7/25/108 12/7/109 22/8/110 8/34/111
f 1/30/112 2/29/113 63/35/114 64/36/115
f 2/29/116 3/28/117 62/37/118 63/35/119
f 3/28/120 4/27/121 61/38/122 62/37/123
f 4/27/124 5/26/125 60/39/126 61/38/127
f 60/39/128 5/26/129 6/24/130 59/40/131
f 59/40/132 6/24/133 7/25/134 58/41/135
f 58/41/136 7/25/137 8/34/138 57/42/139
f 57/42/140 8/34/141 9/33/142 67/43/143
f 67/43/144 9/33/145 10/32/146 66/44/147
f 66/44/148 10/32/149 11/31/150 65/45/151
f 11/31/152 1/30/153 64/36/154 65/45/155
f 31/20/156 36/46/157 35/47/158 32/21/159
f 30/19/160 37/48/161 36/46/162 31/20/163
f 29/18/164 38/49/165 37/48/166 30/19/167
f 28/17/168 39/50/169 38/49/170 29/18/171
f 40/51/172 39/50/173 28/17/174 27/16/175
f 41/52/176 40/51/177 27/16/178 26/15/179
f 42/53/180 41/52/181 26/15/182 24/14/183
f 43/54/184 42/53/185 24/14/186 23/13/187
f 44/55/188 43/54/189 23/13/190 34/23/191
f 33/22/192 45/56/193 44/55/194 34/23/195
f 32/21/196 35/47/197 45/56/198 33/22/199
f 37/48/200 47/57/201 46/58/202 36/46/203
f 38/49/204 48/59/205 47/57/206 37/48/207
f 39/50/208 49/60/209 48/59/210 38/49/211
f 50/61/212 49/60/213 39/50/214 40/51/215
f 51/62/216 50/61/217 40/51/218 41/52/219
f 52/63/220 51/62/221 41/52/222 42/53/223
f 53/64/224 52/63/225 42/53/226 43/54/227
f 54/65/228 53/64/229 43/54/230 44/55/231
f 45/56/232 55/66/233 54/65/234 44/55/235
f 35/47/236 56/67/237 55/66/238 45/56/239
f 36/46/240 46/58/241 56/67/242 35/47/243
f 47/57/244 58/41/245 57/42/246 46/58/247
f 48/59/248 59/40/249 58/41/250 47/57/251
f 49/60/252 60/39/253 59/40/254 48/59/255
f 61/38/256 60/39/257 49/60/258 50/61/259
f 62/37/260 61/38/261 50/61/262 51/62/263
f 63/35/264 62/37/265 51/62/266 52/63/267
f 64/36/268 63/35/269 52/63/270 53/64/271
f 65/45/272 64/36/273 53/64/274 54/65/275
f 55/66/276 66/44/277 65/45/278 54/65/279
f 56/67/280 67/43/281 66/44/282 55/66/283
f 46/58/284 57/42/285 67/43/286 56/67/287
f 68/79/288 78/80/289 77/81/290 76/82/291
f 68/79/292 76/82/293 75/83/294 74/84/295
f 68/79/296 74/84/297 73/85/298 72/86/299
f 68/79/300 72/86/301 71/87/302 70/88/303
f 70/88/304 69/89/305 68/79/306
f 79/74/307 80/73/308 73/85/309 74/84/310
f 80/73/311 81/72/312 72/86/313 73/85/314
f 82/71/315 71/87/316 72/86/317 81/72/318
f 83/70/319 70/88/320 71/87/321 82/71/322
f 84/69/323 69/89/324 70/88/325 83/70/326
f 85/68/327 68/79/328 69/89/329 84/69/330
f 86/78/331 78/80/332 68/79/333 85/68/334
f 86/78/335 87/77/336 77/81/337 78/80/338
f 87/77/339 88/76/340 76/82/341 77/81/342
f 88/76/343 89/75/344 75/83/345 76/82/346
f 89/75/347 79/74/348 74/84/349 75/83/350
